# xmcd
#
# Track frame offsets: 
#        150
#        16846
#        41095
#        65776
#        84827
#
# Disc length: 1291 seconds
#
# Revision: 0
# Processed by: cddbd v1.5.2PL0 Copyright (c) Steve Scherf et al.
# Submitted via: ExactAudioCopy v0.95a5
#
DISCID=36050905
DTITLE=The Frost - Sound of the Frozen Hate
DYEAR=2007
DGENRE=Black Metal
TTITLE0=From the Heart of the Wilderness
TTITLE1=Eternal Spring of Sorrow and Death
TTITLE2=Dark Side of the Brain
TTITLE3=Sounds of the Frozen Hate
TTITLE4=Forest's Shepherd
EXTD=
EXTT0=
EXTT1=
EXTT2=
EXTT3=
EXTT4=
PLAYORDER=
